<svg width="73" height="24" viewBox="0 0 73 24" fill="none" xmlns="http://www.w3.org/2000/svg">
<g clip-path="url(#clip0_4066_3213)">
<path d="M18.6066 0H5.32785C2.3849 0 0 2.39143 0 5.34245V18.6576C0 21.6085 2.3849 24 5.32785 24H18.6066C21.5495 24 23.9344 21.6085 23.9344 18.6576V5.34245C23.9344 2.39143 21.5495 0 18.6066 0Z" fill="white"/>
<path d="M18.5777 3.27932C19.7429 3.27385 20.6954 4.22533 20.6936 5.39734C20.6936 6.56755 19.7374 7.52448 18.5777 7.51902C17.4143 7.51354 16.4708 6.5566 16.4763 5.38459C16.4818 4.2235 17.4179 3.28479 18.5777 3.27932Z" fill="#6B2F8E"/>
<path d="M16.0379 11.1159C16.6722 9.9986 17.6975 9.46636 18.9044 9.23487C19.3407 9.15103 19.7933 9.13097 20.2387 9.11639C20.7659 9.09817 20.9403 9.2932 20.9421 9.82909C20.9421 9.89105 20.9421 9.95486 20.9421 10.0168C20.8967 11.1487 20.6731 12.2296 19.9587 13.1465C19.2625 14.0397 18.29 14.4461 17.2067 14.6155C16.785 14.6812 16.3522 14.703 15.9233 14.703C15.5707 14.703 15.3653 14.4935 15.3562 14.149C15.3289 13.0827 15.5034 12.0564 16.0359 11.1159H16.0379Z" fill="#6B2F8E"/>
<path d="M6.84782 3.53981L7.40224 11.4851C7.44223 12.1012 7.5822 12.5569 7.82214 12.854C8.06209 13.1492 8.48017 13.2769 9.07458 13.2367C9.65444 13.2058 10.0998 13.0144 10.4124 12.6608C10.7251 12.3072 10.8614 11.8223 10.8214 11.2062L10.1761 3.27551L12.4629 3.14062L12.9574 10.2967C12.9774 10.6266 12.9865 10.9602 12.9865 11.2974C12.9865 11.6346 12.9646 11.9554 12.9192 12.278C12.8737 12.6006 12.7974 12.9086 12.6901 13.2022C12.5828 13.4956 12.4265 13.7599 12.2211 13.995C12.1157 14.1062 12.0303 14.1937 11.963 14.2612C11.8957 14.3286 11.8285 14.3869 11.7649 14.4379C11.6994 14.489 11.6285 14.5327 11.5504 14.5692C11.4722 14.6075 11.3795 14.6512 11.2686 14.7005C11.1032 14.7606 10.985 14.8062 10.9123 14.8354C10.8396 14.8645 10.7687 14.8919 10.6978 14.9137C10.6269 14.9356 10.5324 14.9593 10.4124 14.9848C10.2925 15.0103 10.1107 15.0522 9.8653 15.1123C9.73442 15.1415 9.61991 15.1706 9.51629 15.198C9.4145 15.2254 9.31453 15.2436 9.21636 15.2545C9.1182 15.2654 9.01095 15.2728 8.89462 15.2764C8.77647 15.2819 8.64014 15.2783 8.48563 15.2692C8.1657 15.2491 7.9094 15.22 7.71671 15.1835C7.52403 15.1452 7.32044 15.0778 7.10594 14.9774C6.89145 14.8828 6.70785 14.788 6.5588 14.695C6.40975 14.602 6.28068 14.5 6.17343 14.3869C6.06619 14.2739 5.97348 14.1445 5.89531 13.9968C5.81716 13.8492 5.73899 13.6669 5.65901 13.4519C5.59903 13.286 5.54268 13.0782 5.48996 12.8285C5.43724 12.5788 5.39361 12.3217 5.35907 12.0575C5.32454 11.795 5.29364 11.5471 5.27001 11.3174C5.24456 11.0878 5.2282 10.9073 5.2173 10.7761L4.79739 3.67104L6.84419 3.53616L6.84782 3.53981Z" fill="#6B2F8E"/>
<path d="M20.9422 18.0976C20.9204 18.1577 20.9004 18.2179 20.8767 18.2781C20.7076 18.7046 20.3986 18.9707 19.9406 18.9797C19.0062 18.9999 18.0701 18.9889 17.1357 18.9853C16.9195 18.9853 16.7922 18.8504 16.7777 18.6334C16.7704 18.5223 16.7777 18.4111 16.7777 18.2726C16.4687 18.2726 16.1687 18.269 15.867 18.2799C15.8361 18.2799 15.7924 18.3674 15.7797 18.422C15.4925 19.5321 14.8417 20.3432 13.8111 20.8426C13.3293 21.0759 12.8168 21.1725 12.2823 21.1725C10.3828 21.1725 8.48323 21.1798 6.58367 21.1689C4.77864 21.158 3.37351 19.9895 3.04631 18.2252C2.98087 17.8715 2.99723 17.5016 2.99178 17.1406C2.98814 16.9712 3.11538 16.8454 3.28443 16.8163C3.35897 16.8034 3.43532 16.8071 3.51166 16.8071C7.45074 16.8071 11.3898 16.8071 15.3289 16.8071C15.7779 16.8071 15.8652 16.8928 15.8652 17.3375C15.8652 17.4068 15.8652 17.476 15.8652 17.5708H16.7759C16.7759 17.4542 16.7722 17.3449 16.7759 17.2372C16.7831 16.9839 16.9176 16.8435 17.1685 16.8417C18.0737 16.8381 18.9807 16.8344 19.886 16.8435C20.3622 16.849 20.744 17.1497 20.8949 17.6036C20.9076 17.6401 20.9258 17.6765 20.9404 17.713V18.0994L20.9422 18.0976Z" fill="#6B2F8E"/>
<path d="M37.6939 1.30578L38.2731 9.68591C38.2959 10.0731 38.3079 10.4636 38.3079 10.8562C38.3079 11.2488 38.2817 11.6262 38.2294 12.0046C38.177 12.3831 38.0876 12.7439 37.9622 13.0874C37.8367 13.4308 37.6535 13.7403 37.4135 14.0159C37.2903 14.1451 37.1899 14.249 37.1103 14.3288C37.0306 14.4086 36.9532 14.4776 36.8779 14.5355C36.8016 14.5946 36.7188 14.6459 36.6282 14.6897C36.5377 14.7334 36.4275 14.7849 36.2988 14.8439C36.1057 14.9139 35.9661 14.9675 35.8821 15.0025C35.7971 15.0375 35.7141 15.0681 35.6324 15.0955C35.5505 15.1217 35.4392 15.1502 35.2986 15.1786C35.1579 15.2081 34.944 15.2573 34.6572 15.3285C34.5045 15.3634 34.3692 15.3974 34.2493 15.4301C34.1293 15.463 34.0126 15.4849 33.8981 15.4958C33.7836 15.5078 33.6582 15.5165 33.5206 15.5221C33.3833 15.5275 33.224 15.5253 33.0418 15.5133C32.6677 15.4903 32.3667 15.4564 32.142 15.4115C31.9162 15.3679 31.6784 15.2869 31.4265 15.1699C31.1745 15.0583 30.9607 14.9479 30.7851 14.8395C30.6095 14.7313 30.459 14.611 30.3335 14.4787C30.2081 14.3463 30.099 14.1943 30.0085 14.0204C29.9179 13.8476 29.8253 13.6342 29.7315 13.3827C29.6617 13.1891 29.5952 12.9452 29.534 12.6521C29.473 12.359 29.4216 12.0583 29.3802 11.7498C29.3388 11.4413 29.3039 11.1526 29.2744 10.8825C29.245 10.6123 29.2243 10.4012 29.2134 10.2492L28.7214 1.9303L31.1178 1.7717L31.7678 11.076C31.8147 11.7979 31.9783 12.3316 32.2598 12.6783C32.5411 13.0251 33.0288 13.1738 33.7258 13.1267C34.4042 13.0918 34.9267 12.8675 35.2931 12.4531C35.6585 12.0397 35.8178 11.472 35.7719 10.7501L35.0161 1.46328L37.6939 1.30578Z" fill="white"/>
<path d="M48.2324 1.3761L48.1627 3.45309L42.6413 3.48808L43.0012 7.91549L47.4602 7.55456L47.6097 9.73763L43.1856 9.70264L43.4932 13.9802L48.5935 13.8129L48.6632 15.2566L40.5428 15.4327L40.2711 1.62984L48.2335 1.375L48.2324 1.3761Z" fill="white"/>
<path d="M53.8039 1.46281L56.4107 7.8797L57.0074 1.70015L59.6851 1.92873L58.518 15.5992L56.4107 15.1858L53.4089 8.87389L52.8386 15.1147L50.2142 14.8599L51.3628 1.19922L53.8039 1.46281Z" fill="white"/>
<path d="M64.1061 13.8531L63.5007 15.2268L60.8764 15.077L66.4588 1.48633L68.5301 1.52133L71.787 15.5177L68.9599 15.4029L68.6697 14.1266L64.105 13.8542L64.1061 13.8531ZM67.1437 5.88639L64.9317 11.5814L68.3294 11.8013L67.1437 5.88639Z" fill="white"/>
<path d="M72.464 17.2461L70.4571 21.9549C70.4308 22.0173 70.3961 22.0641 70.353 22.0953C70.3123 22.1289 70.2489 22.1457 70.1627 22.1457H69.5021L70.1914 20.6625L68.7015 17.2461H69.4806C69.55 17.2461 69.6038 17.2629 69.6421 17.2965C69.6828 17.3301 69.7127 17.3685 69.7319 17.4117L70.5145 19.3269C70.5409 19.3917 70.5624 19.4565 70.5792 19.5213C70.5983 19.5861 70.6163 19.6521 70.633 19.7193C70.6546 19.6521 70.6761 19.5861 70.6976 19.5213C70.7192 19.4541 70.7431 19.3881 70.7694 19.3233L71.509 17.4117C71.5282 17.3637 71.5593 17.3241 71.6024 17.2929C71.6478 17.2617 71.6981 17.2461 71.7531 17.2461H72.464Z" fill="white"/>
<path d="M66.669 20.9968C66.3483 20.9968 66.1017 20.9068 65.9294 20.7268C65.7595 20.5444 65.6745 20.2936 65.6745 19.9744V17.9116H65.2975C65.2497 17.9116 65.209 17.896 65.1755 17.8648C65.142 17.8336 65.1252 17.7868 65.1252 17.7244V17.3716L65.7176 17.2744L65.9043 16.2664C65.9162 16.2184 65.939 16.1812 65.9725 16.1548C66.006 16.1284 66.0491 16.1152 66.1017 16.1152H66.5613V17.278H67.545V17.9116H66.5613V19.9132C66.5613 20.0284 66.5888 20.1184 66.6439 20.1832C66.7013 20.248 66.7791 20.2804 66.8772 20.2804C66.9323 20.2804 66.9777 20.2744 67.0136 20.2624C67.0519 20.248 67.0842 20.2336 67.1106 20.2192C67.1393 20.2048 67.1644 20.1916 67.186 20.1796C67.2075 20.1652 67.2291 20.158 67.2506 20.158C67.2769 20.158 67.2985 20.1652 67.3152 20.1796C67.332 20.1916 67.3499 20.2108 67.3691 20.2372L67.6347 20.6692C67.5055 20.7772 67.3571 20.8588 67.1896 20.914C67.022 20.9692 66.8485 20.9968 66.669 20.9968Z" fill="white"/>
<path d="M63.5318 17.2448V20.9384H62.6414V17.2448H63.5318ZM63.6538 16.1684C63.6538 16.2452 63.6383 16.3172 63.6072 16.3844C63.5761 16.4516 63.5342 16.5104 63.4815 16.5608C63.4313 16.6112 63.3714 16.652 63.302 16.6832C63.2326 16.712 63.1584 16.7264 63.0794 16.7264C63.0028 16.7264 62.9298 16.712 62.8604 16.6832C62.7934 16.652 62.7348 16.6112 62.6845 16.5608C62.6342 16.5104 62.5935 16.4516 62.5624 16.3844C62.5337 16.3172 62.5193 16.2452 62.5193 16.1684C62.5193 16.0892 62.5337 16.0148 62.5624 15.9452C62.5935 15.8756 62.6342 15.8156 62.6845 15.7652C62.7348 15.7148 62.7934 15.6752 62.8604 15.6464C62.9298 15.6152 63.0028 15.5996 63.0794 15.5996C63.1584 15.5996 63.2326 15.6152 63.302 15.6464C63.3714 15.6752 63.4313 15.7148 63.4815 15.7652C63.5342 15.8156 63.5761 15.8756 63.6072 15.9452C63.6383 16.0148 63.6538 16.0892 63.6538 16.1684Z" fill="white"/>
<path d="M58.3838 17.6987C58.458 17.6243 58.5358 17.5559 58.6172 17.4935C58.701 17.4287 58.7883 17.3747 58.8793 17.3315C58.9726 17.2859 59.072 17.2511 59.1773 17.2271C59.2826 17.2007 59.3975 17.1875 59.5219 17.1875C59.723 17.1875 59.9013 17.2223 60.0569 17.2919C60.2124 17.3591 60.3417 17.4551 60.4446 17.5799C60.5499 17.7023 60.6289 17.8499 60.6815 18.0227C60.7366 18.1931 60.7641 18.3815 60.7641 18.5879V20.9387H59.8773V18.5879C59.8773 18.3623 59.8259 18.1883 59.723 18.0659C59.62 17.9411 59.4633 17.8787 59.2527 17.8787C59.0995 17.8787 58.9559 17.9135 58.8218 17.9831C58.6878 18.0527 58.5609 18.1475 58.4413 18.2675V20.9387H57.5545V17.2451H58.0966C58.2115 17.2451 58.2869 17.2991 58.3228 17.4071L58.3838 17.6987Z" fill="white"/>
<path d="M55.6701 17.2461V20.9397H55.1279C55.0107 20.9397 54.9365 20.8857 54.9053 20.7777L54.8443 20.4825C54.6935 20.6361 54.5272 20.7609 54.3453 20.8569C54.1634 20.9505 53.9492 20.9973 53.7026 20.9973C53.5016 20.9973 53.3233 20.9637 53.1677 20.8965C53.0145 20.8269 52.8853 20.7297 52.78 20.6049C52.6747 20.4801 52.5945 20.3325 52.5394 20.1621C52.4868 19.9893 52.4604 19.7997 52.4604 19.5933V17.2461H53.3472V19.5933C53.3472 19.8189 53.3987 19.9941 53.5016 20.1189C53.6069 20.2413 53.7637 20.3025 53.9719 20.3025C54.1251 20.3025 54.2687 20.2689 54.4027 20.2017C54.5368 20.1321 54.6636 20.0373 54.7833 19.9173V17.2461H55.6701Z" fill="white"/>
<path d="M45.4748 20.9387V17.2451H46.0169C46.1318 17.2451 46.2072 17.2991 46.2431 17.4071L46.3006 17.6807C46.3652 17.6087 46.4322 17.5427 46.5016 17.4827C46.5734 17.4227 46.6488 17.3711 46.7278 17.3279C46.8092 17.2847 46.8953 17.2511 46.9863 17.2271C47.0796 17.2007 47.1813 17.1875 47.2914 17.1875C47.5236 17.1875 47.7139 17.2511 47.8623 17.3783C48.0131 17.5031 48.1256 17.6699 48.1998 17.8787C48.2572 17.7563 48.329 17.6519 48.4152 17.5655C48.5013 17.4767 48.5959 17.4047 48.6988 17.3495C48.8017 17.2943 48.9106 17.2535 49.0255 17.2271C49.1428 17.2007 49.2601 17.1875 49.3773 17.1875C49.5808 17.1875 49.7615 17.2187 49.9194 17.2811C50.0774 17.3435 50.2103 17.4347 50.318 17.5547C50.4257 17.6747 50.507 17.8211 50.5621 17.9939C50.6195 18.1667 50.6482 18.3647 50.6482 18.5879V20.9387H49.7615V18.5879C49.7615 18.3527 49.71 18.1763 49.607 18.0587C49.5041 17.9387 49.3534 17.8787 49.1547 17.8787C49.0638 17.8787 48.9788 17.8943 48.8998 17.9255C48.8232 17.9567 48.755 18.0023 48.6952 18.0623C48.6378 18.1199 48.5923 18.1931 48.5588 18.2819C48.5253 18.3707 48.5085 18.4727 48.5085 18.5879V20.9387H47.6182V18.5879C47.6182 18.3407 47.5679 18.1607 47.4674 18.0479C47.3692 17.9351 47.2244 17.8787 47.033 17.8787C46.9037 17.8787 46.7828 17.9111 46.6703 17.9759C46.5602 18.0383 46.4573 18.1247 46.3616 18.2351V20.9387H45.4748Z" fill="white"/>
<path d="M38.4532 20.9387V17.2451H38.9953C39.1102 17.2451 39.1856 17.2991 39.2215 17.4071L39.2789 17.6807C39.3435 17.6087 39.4105 17.5427 39.4799 17.4827C39.5517 17.4227 39.6271 17.3711 39.7061 17.3279C39.7875 17.2847 39.8737 17.2511 39.9646 17.2271C40.058 17.2007 40.1597 17.1875 40.2698 17.1875C40.5019 17.1875 40.6922 17.2511 40.8406 17.3783C40.9914 17.5031 41.1039 17.6699 41.1781 17.8787C41.2355 17.7563 41.3073 17.6519 41.3935 17.5655C41.4797 17.4767 41.5742 17.4047 41.6771 17.3495C41.78 17.2943 41.8889 17.2535 42.0038 17.2271C42.1211 17.2007 42.2384 17.1875 42.3557 17.1875C42.5591 17.1875 42.7398 17.2187 42.8978 17.2811C43.0557 17.3435 43.1886 17.4347 43.2963 17.5547C43.404 17.6747 43.4854 17.8211 43.5404 17.9939C43.5979 18.1667 43.6266 18.3647 43.6266 18.5879V20.9387H42.7398V18.5879C42.7398 18.3527 42.6884 18.1763 42.5854 18.0587C42.4825 17.9387 42.3317 17.8787 42.1331 17.8787C42.0421 17.8787 41.9572 17.8943 41.8782 17.9255C41.8016 17.9567 41.7334 18.0023 41.6735 18.0623C41.6161 18.1199 41.5706 18.1931 41.5371 18.2819C41.5036 18.3707 41.4868 18.4727 41.4868 18.5879V20.9387H40.5965V18.5879C40.5965 18.3407 40.5462 18.1607 40.4457 18.0479C40.3476 17.9351 40.2028 17.8787 40.0113 17.8787C39.882 17.8787 39.7612 17.9111 39.6487 17.9759C39.5386 18.0383 39.4357 18.1247 39.3399 18.2351V20.9387H38.4532Z" fill="white"/>
<path d="M34.9548 17.1875C35.2277 17.1875 35.4754 17.2319 35.698 17.3207C35.923 17.4095 36.1144 17.5355 36.2724 17.6987C36.4328 17.8619 36.556 18.0611 36.6422 18.2963C36.7283 18.5315 36.7714 18.7943 36.7714 19.0847C36.7714 19.3775 36.7283 19.6415 36.6422 19.8767C36.556 20.1119 36.4328 20.3123 36.2724 20.4779C36.1144 20.6435 35.923 20.7707 35.698 20.8595C35.4754 20.9483 35.2277 20.9927 34.9548 20.9927C34.6796 20.9927 34.4294 20.9483 34.2045 20.8595C33.9795 20.7707 33.7868 20.6435 33.6264 20.4779C33.4685 20.3123 33.3452 20.1119 33.2567 19.8767C33.1705 19.6415 33.1274 19.3775 33.1274 19.0847C33.1274 18.7943 33.1705 18.5315 33.2567 18.2963C33.3452 18.0611 33.4685 17.8619 33.6264 17.6987C33.7868 17.5355 33.9795 17.4095 34.2045 17.3207C34.4294 17.2319 34.6796 17.1875 34.9548 17.1875ZM34.9548 20.3087C35.2612 20.3087 35.4873 20.2055 35.6333 19.9991C35.7817 19.7927 35.8559 19.4903 35.8559 19.0919C35.8559 18.6935 35.7817 18.3899 35.6333 18.1811C35.4873 17.9723 35.2612 17.8679 34.9548 17.8679C34.6437 17.8679 34.4127 17.9735 34.2619 18.1847C34.1135 18.3935 34.0393 18.6959 34.0393 19.0919C34.0393 19.4879 34.1135 19.7903 34.2619 19.9991C34.4127 20.2055 34.6437 20.3087 34.9548 20.3087Z" fill="white"/>
<path d="M31.5575 18.0263C31.5312 18.0599 31.5049 18.0863 31.4786 18.1055C31.4546 18.1247 31.4187 18.1343 31.3709 18.1343C31.3254 18.1343 31.2811 18.1211 31.238 18.0947C31.1949 18.0659 31.1435 18.0347 31.0836 18.0011C31.0238 17.9651 30.952 17.9339 30.8682 17.9075C30.7869 17.8787 30.6851 17.8643 30.5631 17.8643C30.4075 17.8643 30.2711 17.8931 30.1538 17.9507C30.0365 18.0059 29.9384 18.0863 29.8594 18.1919C29.7828 18.2975 29.7254 18.4259 29.6871 18.5771C29.6488 18.7259 29.6296 18.8951 29.6296 19.0847C29.6296 19.2815 29.65 19.4567 29.6907 19.6103C29.7337 19.7639 29.7948 19.8935 29.8738 19.9991C29.9527 20.1023 30.0485 20.1815 30.161 20.2367C30.2735 20.2895 30.4003 20.3159 30.5415 20.3159C30.6827 20.3159 30.7964 20.2991 30.8826 20.2655C30.9711 20.2295 31.0453 20.1911 31.1052 20.1503C31.165 20.1071 31.2165 20.0687 31.2596 20.0351C31.305 19.9991 31.3553 19.9811 31.4103 19.9811C31.4821 19.9811 31.536 20.0087 31.5719 20.0639L31.8268 20.3879C31.7287 20.5031 31.6222 20.6003 31.5073 20.6795C31.3924 20.7563 31.2727 20.8187 31.1483 20.8667C31.0262 20.9123 30.8993 20.9447 30.7677 20.9639C30.6385 20.9831 30.5092 20.9927 30.38 20.9927C30.1526 20.9927 29.9384 20.9507 29.7373 20.8667C29.5363 20.7803 29.3604 20.6555 29.2096 20.4923C29.0588 20.3291 28.9391 20.1299 28.8506 19.8947C28.7644 19.6571 28.7213 19.3871 28.7213 19.0847C28.7213 18.8135 28.7596 18.5627 28.8362 18.3323C28.9152 18.0995 29.0301 17.8991 29.1809 17.7311C29.3316 17.5607 29.5183 17.4275 29.7409 17.3315C29.9635 17.2355 30.2196 17.1875 30.5092 17.1875C30.7845 17.1875 31.025 17.2319 31.2308 17.3207C31.4391 17.4095 31.6258 17.5367 31.7909 17.7023L31.5575 18.0263Z" fill="white"/>
</g>
<defs>
<clipPath id="clip0_4066_3213">
<rect width="73" height="24" fill="white"/>
</clipPath>
</defs>
</svg>
