<svg width="95" height="28" viewBox="0 0 95 28" fill="none" xmlns="http://www.w3.org/2000/svg">
<g clip-path="url(#clip0_4066_3117)">
<path d="M91.3769 27.9478H3.66802C1.73955 27.9478 0.159668 26.3876 0.159668 24.4817V3.68616C0.159668 1.78096 1.73955 0.220703 3.66802 0.220703H91.3769C93.3054 0.220703 94.8846 1.78096 94.8846 3.68616V24.4824C94.8846 26.3883 93.3054 27.9485 91.3762 27.9485L91.3769 27.9478Z" fill="white"/>
<path d="M91.3769 0.776239C93.0009 0.776239 94.3225 2.08182 94.3225 3.68686V24.4817C94.3225 26.0867 93.0009 27.3923 91.3762 27.3923H3.66802C2.04404 27.3923 0.722461 26.0867 0.722461 24.4817V3.68616C0.722461 2.08182 2.04404 0.77554 3.66802 0.77554H91.3769V0.776239ZM91.3769 0.220703H3.66802C1.73955 0.220703 0.159668 1.78096 0.159668 3.68616V24.4824C0.159668 26.3883 1.73955 27.9485 3.66802 27.9485H91.3769C93.3054 27.9485 94.8846 26.3883 94.8846 24.4824V3.68616C94.8846 1.78096 93.3054 0.220703 91.3762 0.220703H91.3769Z" fill="white"/>
<path d="M33.4308 7.32091C33.4308 7.89972 33.2554 8.36328 32.9098 8.70901C32.5125 9.11885 31.995 9.32507 31.3609 9.32507C31.0736 9.32985 30.7884 9.27711 30.5223 9.17004C30.2563 9.06297 30.0149 8.90378 29.8128 8.70208C29.3874 8.2827 29.1752 7.76802 29.1752 7.15195C29.1752 6.53589 29.3874 6.0212 29.8128 5.60529C30.0142 5.40247 30.2554 5.24232 30.5215 5.13461C30.7877 5.02691 31.0733 4.9739 31.3609 4.97883C31.6626 4.97883 31.9503 5.04035 32.2248 5.15473C32.4984 5.26997 32.7212 5.42593 32.8826 5.61829L32.516 5.98394C32.2344 5.65555 31.8511 5.49352 31.3609 5.49352C30.9188 5.49352 30.5355 5.64602 30.2101 5.95362C29.8882 6.26208 29.7269 6.66153 29.7269 7.15195C29.7269 7.64238 29.8882 8.04529 30.2101 8.35375C30.5168 8.65174 30.9307 8.81724 31.3609 8.81385C31.8301 8.81385 32.2248 8.65788 32.5361 8.35029C32.7414 8.14666 32.858 7.86593 32.8887 7.50721H31.3609V7.00638H33.3992C33.4238 7.11469 33.4308 7.21954 33.4308 7.32091V7.32091ZM36.6646 5.5845H34.7499V6.90154H36.476V7.40236H34.7499V8.71941H36.6646V9.22976H34.2079V5.07414H36.6646V5.5845V5.5845ZM38.9467 9.22976H38.4047V5.5845H37.2303V5.07414H40.122V5.5845H38.9467V9.22976V9.22976ZM42.2147 9.22976V5.07414H42.7559V9.22976H42.2147ZM45.1547 9.22976H44.6171V5.5845H43.4383V5.07414H46.3335V5.5845H45.1547V9.22976ZM51.8083 8.69514C51.3934 9.11538 50.8794 9.32507 50.2664 9.32507C49.6498 9.32507 49.1358 9.11538 48.7209 8.69514C48.307 8.27577 48.1008 7.76108 48.1008 7.15195C48.1008 6.54282 48.307 6.02813 48.7209 5.60876C49.1358 5.18852 49.6498 4.97883 50.2664 4.97883C50.8759 4.97883 51.3899 5.18852 51.8048 5.61222C52.2223 6.03506 52.4284 6.54628 52.4284 7.15195C52.4284 7.76108 52.2223 8.27577 51.8083 8.69514V8.69514ZM49.1218 8.34682C49.434 8.65789 49.8138 8.81385 50.2664 8.81385C50.7154 8.81385 51.0987 8.65789 51.4074 8.34682C51.7188 8.03576 51.8767 7.63631 51.8767 7.15195C51.8767 6.66759 51.7188 6.26815 51.4074 5.95708C51.2602 5.80566 51.0827 5.68599 50.8864 5.60561C50.69 5.52524 50.4789 5.48589 50.2664 5.49005C49.8138 5.49005 49.434 5.64602 49.1218 5.95708C48.8104 6.26815 48.6525 6.66759 48.6525 7.15195C48.6525 7.63631 48.8104 8.03576 49.1218 8.34682V8.34682ZM53.1888 9.22976V5.07414H53.8466L55.892 8.3061H55.9156L55.892 7.50721V5.07414H56.4331V9.22976H55.8683L53.7264 5.83837H53.7028L53.7264 6.64073V9.22976H53.1888Z" fill="#3E3E3E" stroke="#3E3E3E" stroke-width="0.199309" stroke-miterlimit="10"/>
<path d="M47.9676 15.2977C46.3198 15.2977 44.9737 16.5361 44.9737 18.2461C44.9737 19.9421 46.3198 21.1938 47.9676 21.1938C49.6195 21.1938 50.9656 19.9414 50.9656 18.2461C50.9656 16.5368 49.6195 15.2977 47.9676 15.2977V15.2977ZM47.9676 20.0331C47.0639 20.0331 46.2855 19.2956 46.2855 18.2461C46.2855 17.1826 47.0639 16.4585 47.9676 16.4585C48.872 16.4585 49.6538 17.1826 49.6538 18.2461C49.6538 19.2956 48.872 20.0331 47.9676 20.0331ZM41.4346 15.2977C39.7826 15.2977 38.44 16.5361 38.44 18.2461C38.44 19.9421 39.7826 21.1938 41.4346 21.1938C43.0851 21.1938 44.4291 19.9414 44.4291 18.2461C44.4291 16.5368 43.0851 15.2977 41.4346 15.2977V15.2977ZM41.4346 20.0331C40.5295 20.0331 39.749 19.2956 39.749 18.2461C39.749 17.1826 40.5295 16.4585 41.4346 16.4585C42.3389 16.4585 43.1166 17.1826 43.1166 18.2461C43.1166 19.2956 42.3389 20.0331 41.4346 20.0331ZM33.6597 16.201V17.4541H36.6886C36.5997 18.1538 36.3631 18.6687 35.9998 19.0276C35.5581 19.4614 34.8693 19.9421 33.6597 19.9421C33.2222 19.9444 32.7885 19.8599 32.3839 19.6934C31.9793 19.5269 31.6118 19.2818 31.3027 18.9723C30.9936 18.6627 30.7491 18.2949 30.5833 17.8902C30.4175 17.4854 30.3337 17.0518 30.3369 16.6145C30.3337 16.1771 30.4175 15.7435 30.5833 15.3388C30.7491 14.9341 30.9936 14.5662 31.3027 14.2567C31.6118 13.9472 31.9793 13.702 32.3839 13.5355C32.7885 13.3691 33.2222 13.2845 33.6597 13.2869C34.6677 13.2869 35.4013 13.6766 35.9417 14.1803L36.8356 13.2974C36.0796 12.5837 35.0716 12.0352 33.6597 12.0352C31.1048 12.0352 28.9558 14.0894 28.9558 16.6145C28.9558 19.1396 31.1048 21.1938 33.6597 21.1938C35.0415 21.1938 36.0789 20.7467 36.8944 19.9078C37.7302 19.0822 37.9913 17.9208 37.9913 16.9832C37.9913 16.6921 37.9668 16.4249 37.9227 16.201H33.6597V16.201ZM65.4505 17.1728C65.2041 16.513 64.444 15.2977 62.8949 15.2977C61.3598 15.2977 60.0823 16.492 60.0823 18.2461C60.0823 19.8973 61.3465 21.1938 63.0419 21.1938C63.5323 21.1985 64.0163 21.0816 64.4504 20.8535C64.8846 20.6254 65.2554 20.2933 65.5296 19.8868L64.5126 19.2172C64.1731 19.7077 63.7104 20.0331 63.0426 20.0331C62.3783 20.0331 61.9016 19.7322 61.5971 19.1396L65.5884 17.508L65.4505 17.1721V17.1728ZM61.3808 18.1544C61.3465 17.0175 62.2747 16.4354 62.9397 16.4354C63.4605 16.4354 63.9029 16.6921 64.0499 17.0609L61.3808 18.1544V18.1544ZM58.137 21.0147H59.4488V12.35H58.137V21.0147V21.0147ZM55.9881 15.954H55.944C55.6493 15.6091 55.0872 15.2977 54.3746 15.2977C52.8801 15.2977 51.5137 16.5935 51.5137 18.2559C51.5137 19.9078 52.8801 21.1938 54.3746 21.1938C55.0872 21.1938 55.6493 20.879 55.944 20.5242H55.9881V20.9468C55.9881 22.074 55.3784 22.6799 54.3949 22.6799C53.5934 22.6799 53.0964 22.1083 52.8906 21.6269L51.7496 22.0978C52.0786 22.8793 52.9494 23.8406 54.3956 23.8406C55.9335 23.8406 57.2313 22.9465 57.2313 20.7712V15.4761H55.9881V15.9533V15.954ZM54.4873 20.0331C53.5829 20.0331 52.8262 19.2844 52.8262 18.2559C52.8262 17.2169 53.5829 16.4585 54.4873 16.4585C55.3784 16.4585 56.0812 17.2169 56.0812 18.2559C56.0812 19.2844 55.3784 20.0331 54.4873 20.0331ZM71.5937 12.35H68.4556V21.0147H69.7646V17.7312H71.5937C73.0468 17.7312 74.472 16.6921 74.472 15.0402C74.472 13.389 73.044 12.35 71.5937 12.35V12.35ZM71.628 16.5263H69.7639V13.5548H71.628C72.0285 13.5488 72.415 13.7019 72.7027 13.9803C72.9905 14.2588 73.156 14.6399 73.163 15.0402C73.163 15.7105 72.6052 16.5263 71.628 16.5263ZM79.7171 15.2809C78.7721 15.2809 77.7886 15.6937 77.384 16.6075L78.546 17.0882C78.7952 16.6075 79.2551 16.4515 79.7409 16.4515C80.4199 16.4515 81.1087 16.8545 81.1192 17.566V17.657C80.8819 17.5219 80.3751 17.3211 79.7514 17.3211C78.5005 17.3211 77.2265 18.0019 77.2265 19.2711C77.2265 20.4326 78.2506 21.1798 79.4028 21.1798C80.2834 21.1798 80.7691 20.788 81.0743 20.3311H81.1192V21.0007H82.3826V17.6773C82.3826 16.1408 81.2213 15.2809 79.7171 15.2809V15.2809ZM79.5596 20.0296C79.1312 20.0296 78.5348 19.8197 78.5348 19.2949C78.5348 18.6246 79.2789 18.3671 79.9229 18.3671C80.499 18.3671 80.7692 18.4931 81.1192 18.6582C81.0682 19.0363 80.8823 19.3832 80.5958 19.6352C80.3092 19.8872 79.9412 20.0272 79.5596 20.0296V20.0296ZM86.9872 15.4705L85.4836 19.227H85.4388L83.8834 15.4705H82.4722L84.8088 20.7201L83.4753 23.6405H84.8431L88.4432 15.4705H86.9872ZM75.1916 21.0147H76.5034V12.35H75.1916V21.0147V21.0147Z" fill="#3E3E3E"/>
<path d="M7.4814 5.44544C7.27529 5.65859 7.15601 5.99045 7.15601 6.42023V21.7499C7.15601 22.1797 7.27529 22.5115 7.4814 22.7247L7.53227 22.7715L16.2277 14.1847V13.982L7.53227 5.39519L7.4814 5.44544Z" fill="url(#paint0_linear_4066_3117)"/>
<path d="M19.1229 17.0488L16.2277 14.1851V13.9824L19.1264 11.1187L19.1913 11.1559L22.6242 13.0856C23.6039 13.6332 23.6039 14.5343 22.6242 15.0854L19.1913 17.0116L19.1229 17.0488V17.0488Z" fill="url(#paint1_linear_4066_3117)"/>
<path d="M19.1914 17.0117L16.2277 14.0839L7.48145 22.7253C7.80684 23.0632 8.33748 23.1039 8.94091 22.766L19.1914 17.0117" fill="url(#paint2_linear_4066_3117)"/>
<path d="M19.1914 11.1562L8.94091 5.4019C8.33748 5.06744 7.80684 5.10816 7.48145 5.44609L16.2277 14.084L19.1914 11.1562Z" fill="url(#paint3_linear_4066_3117)"/>
</g>
<defs>
<linearGradient id="paint0_linear_4066_3117" x1="15.4558" y1="21.9093" x2="3.82304" y2="10.1349" gradientUnits="userSpaceOnUse">
<stop stop-color="white"/>
<stop offset="0.007" stop-color="#00A1FF"/>
<stop offset="0.26" stop-color="#00BEFF"/>
<stop offset="0.512" stop-color="#00D2FF"/>
<stop offset="0.76" stop-color="#00DFFF"/>
<stop offset="1" stop-color="#00E3FF"/>
</linearGradient>
<linearGradient id="paint1_linear_4066_3117" x1="23.8997" y1="14.0831" x2="6.92217" y2="14.0831" gradientUnits="userSpaceOnUse">
<stop stop-color="#FFE000"/>
<stop offset="0.409" stop-color="#FFBD00"/>
<stop offset="0.775" stop-color="#FFA500"/>
<stop offset="1" stop-color="#FF9C00"/>
</linearGradient>
<linearGradient id="paint2_linear_4066_3117" x1="17.5798" y1="12.4924" x2="1.80559" y2="-3.47495" gradientUnits="userSpaceOnUse">
<stop stop-color="#FF3A44"/>
<stop offset="1" stop-color="#C31162"/>
</linearGradient>
<linearGradient id="paint3_linear_4066_3117" x1="5.27962" y1="27.8256" x2="12.3239" y2="20.6951" gradientUnits="userSpaceOnUse">
<stop stop-color="#32A071"/>
<stop offset="0.069" stop-color="#2DA771"/>
<stop offset="0.476" stop-color="#15CF74"/>
<stop offset="0.801" stop-color="#06E775"/>
<stop offset="1" stop-color="#00F076"/>
</linearGradient>
<clipPath id="clip0_4066_3117">
<rect width="95" height="28" fill="white"/>
</clipPath>
</defs>
</svg>
