<svg width="90" height="28" viewBox="0 0 90 28" fill="none" xmlns="http://www.w3.org/2000/svg">
<g clip-path="url(#clip0_4066_3102)">
<path d="M82.6007 0L6.32973 0.0016L5.64027 0.0096C5.13723 0.016 4.635 0.056 4.13839 0.1336C3.64179 0.2112 3.16125 0.36 2.71205 0.5728C2.26742 0.784444 1.85795 1.0626 1.49786 1.3976C1.14296 1.72513 0.844357 2.10834 0.613929 2.532C0.38718 2.94818 0.229007 3.3979 0.145446 3.864C0.0620582 4.32673 0.0171737 4.79552 0.01125 5.2656L0 5.912V22.092L0.01125 22.7376C0.016875 23.2072 0.061875 23.676 0.145446 24.1392C0.229018 24.6024 0.386518 25.0528 0.613929 25.472C0.841339 25.8912 1.13946 26.272 1.49786 26.6024C1.85143 26.936 2.26286 27.2152 2.71125 27.4264C3.15964 27.6376 3.64098 27.788 4.13679 27.868C4.63259 27.948 5.13643 27.9856 5.63946 27.992L6.32893 28H7.15179L84.1066 27.992C84.609 27.9861 85.1104 27.9447 85.6069 27.868C86.1024 27.7884 86.5842 27.6398 87.038 27.4264C87.4831 27.2163 87.8922 26.938 88.2506 26.6016C88.6048 26.2743 88.9041 25.8927 89.137 25.4712C89.3624 25.0545 89.5192 24.6045 89.6014 24.1384C89.685 23.6756 89.7315 23.2069 89.7404 22.7368L89.7437 22.0912L89.7493 21.3256L89.7412 5.2664C89.7323 4.79627 89.6858 4.3276 89.6022 3.8648C89.5198 3.39897 89.363 2.94928 89.1378 2.5328C88.6749 1.6904 87.9324 1.0048 87.0388 0.5728C86.5888 0.3608 86.1051 0.2128 85.6085 0.1328C85.1119 0.0528 84.6161 0.016 84.1058 0.0104L83.4147 0.0024L82.6007 0Z" fill="white"/>
<path d="M6.33375 27.3877C6.10766 27.3877 5.88157 27.3853 5.65553 27.3805C5.18602 27.3747 4.71748 27.3365 4.2533 27.2661C3.82312 27.1973 3.40487 27.0683 3.01098 26.8829C2.62452 26.7015 2.27054 26.4583 1.96312 26.1629C1.65566 25.8813 1.39717 25.551 1.19812 25.1853C1.00052 24.823 0.862949 24.4313 0.790711 24.0253C0.713687 23.5917 0.672033 23.1527 0.666157 22.7125L0.654907 22.0725V5.91248L0.666157 5.28608C0.671782 4.84608 0.714371 4.40848 0.789907 3.97568C0.86222 3.56872 0.999778 3.17597 1.19732 2.81248C1.39259 2.45008 1.64973 2.11968 1.9583 1.83408C2.26687 1.54848 2.62125 1.30448 3.01098 1.11808C3.40395 0.932836 3.82146 0.804342 4.25089 0.736481C4.71635 0.665337 5.18626 0.626843 5.65714 0.621281L6.33375 0.613281L84.0953 0.621281C84.5622 0.626346 85.0281 0.664307 85.4895 0.734881C85.9235 0.803269 86.3456 0.932555 86.7431 1.11888C87.5096 1.48142 88.1429 2.07362 88.5544 2.81248C88.7496 3.17648 88.8854 3.56448 88.9561 3.96688C89.0339 4.40312 89.0774 4.84472 89.0863 5.28768L89.0887 5.91168L89.0944 6.67568L89.0863 22.7293C89.0783 23.1645 89.0349 23.5981 88.9578 24.0269C88.8879 24.4333 88.7512 24.8269 88.5528 25.1949C88.3527 25.5567 88.0955 25.884 87.791 26.1645C87.4811 26.4566 87.127 26.6982 86.7415 26.8805C86.345 27.0674 85.9237 27.197 85.4903 27.2653C85.0267 27.3357 84.5582 27.3741 84.0881 27.3797L83.4147 27.3877L82.6015 27.3893L6.33455 27.3877H6.33375Z" fill="white"/>
<path d="M18.577 14.2111C18.593 13.0239 19.26 11.9271 20.3448 11.3047C19.6578 10.3887 18.5488 9.82947 17.3515 9.79427C16.0923 9.67107 14.8709 10.4983 14.2296 10.4983C13.5755 10.4983 12.5871 9.80707 11.5232 9.82787C10.1234 9.87027 8.84974 10.5959 8.16831 11.7375C6.71786 14.0815 7.79866 17.5263 9.18884 19.4207C9.88393 20.3487 10.6963 21.3847 11.7603 21.3407C12.8009 21.3007 13.189 20.7215 14.4442 20.7215C15.6881 20.7215 16.0529 21.3407 17.1378 21.3175C18.2628 21.3015 18.9571 20.3855 19.6288 19.4495C20.1249 18.7948 20.5096 18.0635 20.7675 17.2847C19.4416 16.7615 18.5794 15.5487 18.5778 14.2047L18.577 14.2111ZM16.5279 8.54867C16.8263 8.21912 17.0542 7.83258 17.1979 7.41257C17.3416 6.99256 17.3979 6.54784 17.3636 6.10547C16.4469 6.19014 15.5921 6.60284 14.9577 7.26707C14.6594 7.57907 14.4292 7.94919 14.2816 8.35412C14.134 8.75905 14.0723 9.19001 14.1003 9.61987C15.0429 9.62947 15.9372 9.23427 16.5271 8.54787L16.5279 8.54867ZM31.7266 18.9983H28.1764L27.3246 21.3479H25.822L29.1849 12.6551H30.7471L34.11 21.3479H32.5808L31.729 18.9983H31.7266ZM28.5445 17.9143H31.3586L29.9716 14.1007H29.933L28.5453 17.9143H28.5445Z" fill="#3E3E3E"/>
<path d="M41.3695 18.1806C41.3695 20.1502 40.2404 21.415 38.5361 21.415C37.6554 21.4582 36.8245 21.027 36.3986 20.3062H36.3664V23.4454H34.9722V15.011H36.3222V16.0646H36.3479C36.7923 15.3478 37.6232 14.9174 38.5096 14.9446C40.2332 14.9446 41.3687 16.2166 41.3687 18.1798L41.3695 18.1806ZM39.9367 18.1806C39.9367 16.8974 39.2263 16.0526 38.1423 16.0526C37.0776 16.0526 36.3608 16.9142 36.3608 18.1806C36.3608 19.4574 37.076 20.3126 38.1423 20.3126C39.2271 20.3126 39.9367 19.475 39.9367 18.1806Z" fill="#3E3E3E"/>
<path d="M48.8435 18.1806C48.8435 20.1502 47.7144 21.415 46.0101 21.415C45.1294 21.4582 44.2985 21.027 43.8726 20.3062H43.8404V23.4454H42.4462V15.011H43.7962V16.0646H43.8219C44.2663 15.3478 45.0972 14.9174 45.9835 14.9446C47.7072 14.9446 48.8427 16.2166 48.8427 18.1798L48.8435 18.1806ZM47.4107 18.1806C47.4107 16.8974 46.7003 16.0526 45.6163 16.0526C44.5516 16.0526 43.8348 16.9142 43.8348 18.1806C43.8348 19.4574 44.55 20.3126 45.6163 20.3126C46.7011 20.3126 47.4107 19.475 47.4107 18.1806Z" fill="#3E3E3E"/>
<path d="M53.783 18.9265C53.8875 19.7889 54.7835 20.3545 56.0089 20.3545C57.1837 20.3545 58.0291 19.7881 58.0291 19.0105C58.0291 18.3353 57.5196 17.9305 56.3127 17.6545L55.1057 17.3825C53.3957 16.9969 52.6018 16.2505 52.6018 15.0385C52.6018 13.5385 54.0024 12.5081 55.9904 12.5081C57.9592 12.5081 59.3076 13.5385 59.3534 15.0385H57.9375C57.8531 14.1713 57.0857 13.6465 55.9623 13.6465C54.8389 13.6465 54.0715 14.1769 54.0715 14.9473C54.0715 15.5617 54.5537 15.9233 55.763 16.2001L56.7892 16.4353C58.7001 16.8569 59.494 17.5737 59.494 18.8449C59.494 20.4713 58.1062 21.4897 55.8988 21.4897C53.8337 21.4897 52.4387 20.4953 52.3487 18.9233H53.7758L53.783 18.9265ZM62.5098 13.5105V15.0105H63.8012V16.0409H62.5179V19.5345C62.5179 20.0785 62.7766 20.3305 63.3439 20.3305C63.4973 20.328 63.6504 20.3178 63.8028 20.3001V21.3241C63.5473 21.3684 63.2882 21.3885 63.0289 21.3841C61.6628 21.3841 61.118 20.9017 61.118 19.6721V16.0401H60.1296V15.0001H61.118V13.5001H62.5179L62.5098 13.5105ZM64.5485 18.1801C64.5485 16.1857 65.8069 14.9321 67.7692 14.9321C69.7379 14.9321 70.9835 16.1849 70.9835 18.1801C70.9835 20.1801 69.7379 21.4281 67.7692 21.4281C65.8004 21.4281 64.5485 20.1801 64.5485 18.1801ZM69.5708 18.1801C69.5708 16.8201 68.899 16.0041 67.7708 16.0041C66.6426 16.0041 65.9708 16.8177 65.9708 18.1801C65.9708 19.5529 66.6418 20.3545 67.7708 20.3545C68.8998 20.3545 69.5708 19.5529 69.5708 18.1801ZM72.139 15.0105H73.4681V16.0809H73.5003C73.6851 15.3865 74.3681 14.9089 75.1339 14.9369C75.2942 14.9368 75.4542 14.9528 75.6112 14.9849V16.2009C75.4075 16.1432 75.1962 16.1168 74.9845 16.1225C74.5827 16.1065 74.1785 16.2585 73.8996 16.5385C73.6208 16.8185 73.4866 17.1993 73.5324 17.5785V21.3385H72.1382V15.0009L72.139 15.0105ZM82.039 19.4865C81.8518 20.6369 80.6512 21.4265 79.114 21.4265C77.1388 21.4265 75.9126 20.1913 75.9126 18.2105C75.9126 16.2225 77.1453 14.9329 79.0465 14.9329C80.9253 14.9329 82.1065 16.1377 82.1065 18.0593V18.5049H77.3196V18.5833C77.2746 19.0633 77.4498 19.5225 77.7986 19.8657C77.9766 20.0375 78.1879 20.1715 78.4195 20.2597C78.6512 20.3478 78.8984 20.3882 79.1461 20.3785C79.8228 20.4377 80.46 20.0745 80.7131 19.4873H82.0366L82.039 19.4865ZM77.3277 17.5953H80.7228C80.7341 17.3831 80.6992 17.171 80.6204 16.9735C80.5416 16.776 80.4208 16.5979 80.2663 16.4513C80.1055 16.2983 79.9158 16.1784 79.7083 16.0986C79.5007 16.0189 79.2794 15.9808 79.057 15.9865C78.604 15.9816 78.1663 16.149 77.8331 16.4545C77.6752 16.6003 77.5489 16.7767 77.4618 16.9729C77.3748 17.1691 77.3288 17.3808 77.3269 17.5953H77.3277ZM28.3701 6.11287C28.659 6.09181 28.9491 6.13196 29.2213 6.2307C29.4935 6.32944 29.7415 6.4845 29.9491 6.68567C30.1481 6.8781 30.2994 7.1141 30.3907 7.37491C30.4821 7.63572 30.5111 7.91415 30.4754 8.18807C30.4754 9.52247 29.7024 10.2897 28.3701 10.2897H26.7533V6.11287H28.3701V6.11287ZM27.4484 9.69847H28.2921C28.4985 9.71129 28.7052 9.68018 28.8985 9.6072C29.0918 9.53423 29.2672 9.42107 29.4131 9.27527C29.6992 8.98407 29.831 8.58727 29.7683 8.19527C29.7959 8.00097 29.7776 7.80294 29.715 7.61687C29.6524 7.43081 29.5471 7.26181 29.4075 7.12327C29.2619 6.97878 29.0872 6.86654 28.895 6.79388C28.7028 6.72123 28.4974 6.68981 28.2921 6.70167H27.4484V9.69767V9.69847Z" fill="#3E3E3E"/>
<path d="M31.2606 8.71269C31.2027 8.14789 31.4936 7.59269 32.0095 7.30149C32.5254 7.01029 33.1803 7.00229 33.697 7.30149C34.2137 7.60069 34.5038 8.14789 34.4459 8.71269C34.5046 9.27829 34.2153 9.82629 33.6986 10.1263C33.1819 10.4263 32.527 10.4263 32.0095 10.1263C31.492 9.82629 31.2027 9.27829 31.2622 8.71269H31.2606ZM33.7597 8.71269C33.7597 8.02949 33.4302 7.62949 32.854 7.62949C32.2779 7.62949 31.9484 8.02949 31.9484 8.71269C31.9484 9.40069 32.2747 9.79749 32.854 9.79749C33.4334 9.79749 33.7597 9.39749 33.7597 8.71269Z" fill="#3E3E3E"/>
<path d="M38.6799 10.2887H37.9889L37.2898 7.96712H37.2367L36.5416 10.2887H35.857L34.9265 7.13672H35.6015L36.2065 9.54152H36.2564L36.9506 7.13672H37.5903L38.2846 9.54152H38.3376L38.9403 7.13672H39.6073L38.6799 10.2887Z" fill="#3E3E3E"/>
<path d="M40.3907 7.13621H41.032V7.63701H41.0818C41.2553 7.26901 41.6603 7.04261 42.0895 7.07541C42.4221 7.05141 42.7484 7.17141 42.9758 7.39941C43.0869 7.50859 43.1705 7.64243 43.2197 7.78997C43.2688 7.93751 43.2822 8.09454 43.2587 8.24821V10.2882H42.5917V8.40421C42.5917 7.89781 42.3562 7.64581 41.8628 7.64581C41.7525 7.64036 41.6423 7.65765 41.539 7.69661C41.4357 7.73557 41.3416 7.79535 41.2626 7.87221C41.1869 7.94579 41.1291 8.0355 41.0933 8.13458C41.0575 8.23366 41.0448 8.33952 41.0561 8.44421V10.2882H40.3891V7.13621H40.3907Z" fill="#3E3E3E"/>
<path d="M44.321 5.90625H44.9879V10.2886H44.321V5.90625ZM45.9137 8.71265C45.8558 8.14785 46.1547 7.59265 46.6626 7.30145C46.9199 7.15631 47.2106 7.08002 47.5063 7.08002C47.8021 7.08002 48.0928 7.15631 48.3501 7.30145C48.8668 7.60065 49.1569 8.14785 49.099 8.71265C49.1577 9.27825 48.8676 9.82625 48.3517 10.1262C47.8358 10.4262 47.1801 10.4262 46.6626 10.1262C46.1451 9.82625 45.855 9.27825 45.9153 8.71265H45.9137ZM48.4047 8.71265C48.4047 8.02945 48.0833 7.62945 47.4991 7.62945C46.9149 7.62945 46.5935 8.02945 46.5935 8.71265C46.5935 9.40065 46.9197 9.79745 47.4991 9.79745C48.0785 9.79745 48.4047 9.39745 48.4047 8.71265ZM49.8013 9.39745C49.8013 8.83745 50.2538 8.50305 51.0573 8.45665L51.9718 8.40705V8.13505C51.9718 7.80225 51.7363 7.61505 51.2807 7.61505C50.9087 7.61505 50.6507 7.74305 50.5768 7.96545H49.9315C49.9998 7.42385 50.5454 7.08545 51.3113 7.08545C52.1582 7.08545 52.6355 7.47905 52.6355 8.14465V10.2982H51.9943V9.85505H51.9413C51.8288 10.017 51.6765 10.1475 51.499 10.2342C51.3215 10.3209 51.1246 10.3608 50.9271 10.3502C50.7866 10.3646 50.6445 10.3509 50.5093 10.3099C50.3741 10.269 50.2484 10.2017 50.1396 10.1118C50.0352 10.0259 49.9508 9.91834 49.8924 9.79661C49.8339 9.67489 49.8029 9.54195 49.8013 9.40705V9.39745ZM51.9726 9.12865V8.86465L51.1481 8.91425C50.6821 8.94385 50.4731 9.09025 50.4731 9.36865C50.4731 9.65185 50.7367 9.81665 51.0999 9.81665C51.3145 9.83665 51.529 9.77505 51.6946 9.64545C51.7749 9.58334 51.8413 9.50522 51.8896 9.4161C51.9379 9.32697 51.967 9.2288 51.975 9.12785L51.9726 9.12865ZM53.5114 8.71265C53.5114 7.71665 54.0603 7.08545 54.9137 7.08545C55.1206 7.07426 55.3267 7.11981 55.5095 7.21714C55.6923 7.31447 55.8447 7.45984 55.9503 7.63745H56.0001V5.90625H56.6671V10.2886H56.0282V9.79025H55.9752C55.7582 10.1423 55.35 10.3558 54.9145 10.3406C54.0546 10.3406 53.5122 9.70065 53.5122 8.71105L53.5114 8.71265ZM54.2001 8.71265C54.2001 9.38145 54.5376 9.78465 55.1025 9.78465C55.6674 9.78465 56.0105 9.38465 56.0105 8.71665C56.0105 8.04865 55.6594 7.64625 55.1025 7.64625C54.5456 7.64625 54.2001 8.05105 54.2001 8.71425V8.71265Z" fill="#3E3E3E"/>
<path d="M59.4225 8.71269C59.3646 8.14789 59.6555 7.59269 60.1714 7.30149C60.6873 7.01029 61.3422 7.00229 61.8589 7.30149C62.3756 7.60069 62.6657 8.14789 62.6079 8.71269C62.6665 9.27829 62.3772 9.82629 61.8605 10.1263C61.3438 10.4263 60.6889 10.4263 60.1714 10.1263C59.6539 9.82629 59.3646 9.27829 59.4241 8.71269H59.4225ZM61.9216 8.71269C61.9216 8.02949 61.5921 7.62949 61.016 7.62949C60.4398 7.62949 60.1103 8.02949 60.1103 8.71269C60.1103 9.40069 60.4366 9.79749 61.016 9.79749C61.5953 9.79749 61.9216 9.39749 61.9216 8.71269Z" fill="#3E3E3E"/>
<path d="M63.5022 7.13621H64.1435V7.63701H64.1933C64.3669 7.26901 64.7719 7.04261 65.201 7.07541C65.5336 7.05141 65.8599 7.17141 66.0873 7.39941C66.1984 7.50859 66.282 7.64243 66.3312 7.78997C66.3804 7.93751 66.3937 8.09454 66.3702 8.24821V10.2882H65.7032V8.40421C65.7032 7.89781 65.4678 7.64581 64.9744 7.64581C64.864 7.64036 64.7538 7.65765 64.6505 7.69661C64.5472 7.73557 64.4531 7.79535 64.3741 7.87221C64.2985 7.94579 64.2406 8.0355 64.2048 8.13458C64.169 8.23366 64.1563 8.33952 64.1676 8.44421V10.2882H63.5006V7.13621H63.5022Z" fill="#3E3E3E"/>
<path d="M70.1357 6.35265V7.15265H70.8589V7.67665H70.1357V9.29745C70.1357 9.62785 70.2804 9.77185 70.613 9.77185C70.6979 9.77184 70.7827 9.76703 70.867 9.75745V10.2758C70.7464 10.2958 70.6259 10.3062 70.5054 10.3078C69.7645 10.3078 69.4607 10.0646 69.4607 9.45665V7.67505H68.9247V7.15105H69.4607V6.35105H70.1277L70.1357 6.35265ZM71.779 5.90625H72.4396V7.64225H72.4926C72.6742 7.27025 73.0856 7.04465 73.5212 7.07745C73.6827 7.06828 73.8444 7.09319 73.9956 7.15054C74.1468 7.20789 74.2842 7.29639 74.3987 7.41025C74.5069 7.52038 74.5887 7.6534 74.6381 7.79939C74.6875 7.94539 74.7032 8.10059 74.6839 8.25345V10.2879H74.017V8.40625C74.017 7.90225 73.7655 7.64785 73.2938 7.64785C73.1804 7.63862 73.0663 7.65299 72.9588 7.69004C72.8513 7.72709 72.7528 7.78601 72.6694 7.86305C72.5896 7.93684 72.5277 8.02782 72.4886 8.12903C72.4494 8.23024 72.4341 8.33901 72.4436 8.44705V10.287H71.7766V5.90625H71.779ZM78.5708 9.43825C78.3836 10.0327 77.7672 10.4167 77.1083 10.3503C76.6583 10.3615 76.2244 10.187 75.9247 9.87345C75.6249 9.55985 75.4867 9.13985 75.547 8.72305C75.5179 8.51472 75.5367 8.30255 75.6018 8.10247C75.6669 7.90239 75.7768 7.71961 75.923 7.56785C76.0756 7.40963 76.2591 7.28431 76.4623 7.19967C76.6655 7.11504 76.884 7.07289 77.1043 7.07585C78.0445 7.07585 78.611 7.67585 78.611 8.66465V8.88065H76.2268V8.91505C76.2168 9.03189 76.2327 9.14949 76.2733 9.25953C76.314 9.36958 76.3785 9.46937 76.4622 9.55185C76.5495 9.63796 76.6532 9.70587 76.7672 9.75161C76.8811 9.79736 77.0031 9.82001 77.126 9.81825C77.2826 9.8374 77.4415 9.81158 77.5838 9.74383C77.7262 9.67608 77.8462 9.56922 77.9296 9.43585H78.5708V9.43825ZM76.226 8.42225H77.932C77.9395 8.31534 77.9236 8.20808 77.8853 8.10793C77.847 8.00777 77.7872 7.91711 77.7102 7.84225C77.6298 7.76419 77.5344 7.70306 77.4298 7.66251C77.3251 7.62196 77.2133 7.60283 77.1011 7.60625C76.86 7.60385 76.643 7.68865 76.4791 7.84225C76.3152 7.99585 76.2236 8.20545 76.226 8.42305V8.42225Z" fill="#3E3E3E"/>
</g>
<defs>
<clipPath id="clip0_4066_3102">
<rect width="90" height="28" fill="white"/>
</clipPath>
</defs>
</svg>
