<svg width="48" height="40" viewBox="0 0 48 40" fill="none" xmlns="http://www.w3.org/2000/svg">
<path d="M29.5389 0H18.4429C15.9838 0 13.9909 1.99286 13.9909 4.45204V15.548C13.9909 18.0071 15.9838 20 18.4429 20H29.5389C31.998 20 33.9909 18.0071 33.9909 15.548V4.45204C33.9909 1.99286 31.998 0 29.5389 0Z" fill="white"/>
<path d="M29.5147 2.73244C30.4884 2.72788 31.2843 3.52078 31.2828 4.49746C31.2828 5.47263 30.4838 6.27007 29.5147 6.26552C28.5426 6.26096 27.7543 5.46351 27.7588 4.48683C27.7634 3.51926 28.5456 2.737 29.5147 2.73244Z" fill="#6B2F8E"/>
<path d="M27.3924 9.26296C27.9225 8.33184 28.7792 7.88831 29.7878 7.6954C30.1523 7.62553 30.5305 7.60882 30.9027 7.59667C31.3432 7.58148 31.489 7.74401 31.4905 8.19058C31.4905 8.24222 31.4905 8.29539 31.4905 8.34703C31.4525 9.2903 31.2657 10.191 30.6687 10.9551C30.087 11.6994 29.2743 12.0381 28.3691 12.1793C28.0167 12.234 27.6551 12.2522 27.2967 12.2522C27.002 12.2522 26.8304 12.0776 26.8228 11.7905C26.8 10.9019 26.9458 10.0467 27.3909 9.26296H27.3924Z" fill="#6B2F8E"/>
<path d="M19.7131 2.94984L20.1763 9.57094C20.2098 10.0843 20.3267 10.4641 20.5272 10.7117C20.7277 10.9577 21.0771 11.0641 21.5738 11.0306C22.0583 11.0048 22.4305 10.8453 22.6917 10.5507C22.953 10.256 23.0669 9.85194 23.0335 9.33854L22.4943 2.72959L24.4051 2.61719L24.8183 8.58058C24.835 8.85551 24.8426 9.13348 24.8426 9.41448C24.8426 9.69549 24.8243 9.96283 24.7864 10.2317C24.7484 10.5005 24.6846 10.7572 24.595 11.0018C24.5054 11.2463 24.3747 11.4666 24.2031 11.6625C24.115 11.7552 24.0436 11.8281 23.9874 11.8843C23.9312 11.9405 23.875 11.9891 23.8218 12.0316C23.7671 12.0742 23.7079 12.1106 23.6426 12.141C23.5773 12.1729 23.4998 12.2094 23.4072 12.2504C23.2689 12.3005 23.1702 12.3385 23.1094 12.3628C23.0487 12.3871 22.9894 12.4099 22.9302 12.4281C22.871 12.4463 22.792 12.4661 22.6917 12.4873C22.5915 12.5086 22.4396 12.5435 22.2345 12.5936C22.1252 12.6179 22.0295 12.6423 21.9429 12.665C21.8578 12.6878 21.7743 12.703 21.6923 12.7121C21.6102 12.7212 21.5206 12.7273 21.4234 12.7304C21.3247 12.7349 21.2108 12.7319 21.0816 12.7243C20.8143 12.7076 20.6001 12.6833 20.4391 12.6529C20.2781 12.621 20.108 12.5648 19.9288 12.4812C19.7495 12.4023 19.5961 12.3233 19.4716 12.2458C19.347 12.1683 19.2392 12.0833 19.1495 11.9891C19.0599 11.8949 18.9825 11.7871 18.9171 11.664C18.8518 11.541 18.7865 11.3891 18.7197 11.2099C18.6696 11.0717 18.6225 10.8985 18.5784 10.6904C18.5344 10.4823 18.4979 10.2681 18.4691 10.0479C18.4402 9.82916 18.4144 9.62258 18.3946 9.43119C18.3734 9.23981 18.3597 9.08943 18.3506 8.98006L17.9997 3.0592L19.71 2.9468L19.7131 2.94984Z" fill="#6B2F8E"/>
<path d="M31.4905 15.0817C31.4723 15.1318 31.4556 15.1819 31.4358 15.2321C31.2946 15.5875 31.0364 15.8093 30.6536 15.8168C29.8728 15.8336 29.0906 15.8244 28.3098 15.8214C28.1291 15.8214 28.0228 15.709 28.0106 15.5282C28.0045 15.4356 28.0106 15.3429 28.0106 15.2275C27.7524 15.2275 27.5018 15.2245 27.2496 15.2336C27.2238 15.2336 27.1873 15.3065 27.1767 15.352C26.9367 16.2771 26.3929 16.953 25.5317 17.3692C25.1292 17.5636 24.7008 17.6441 24.2543 17.6441C22.667 17.6441 21.0797 17.6502 19.4924 17.6411C17.984 17.632 16.8099 16.6583 16.5365 15.188C16.4818 14.8933 16.4955 14.585 16.4909 14.2842C16.4879 14.143 16.5942 14.0382 16.7355 14.0139C16.7977 14.0032 16.8615 14.0063 16.9253 14.0063C20.2169 14.0063 23.5085 14.0063 26.8 14.0063C27.1752 14.0063 27.2481 14.0777 27.2481 14.4483C27.2481 14.506 27.2481 14.5637 27.2481 14.6427H28.0091C28.0091 14.5455 28.0061 14.4544 28.0091 14.3647C28.0152 14.1536 28.1276 14.0366 28.3372 14.0351C29.0936 14.0321 29.8516 14.029 30.608 14.0366C31.006 14.0412 31.325 14.2918 31.451 14.67C31.4617 14.7004 31.4769 14.7308 31.489 14.7612V15.0832L31.4905 15.0817Z" fill="#6B2F8E"/>
<path d="M9.99678 24.1184L10.6421 33.4297C10.6676 33.8599 10.681 34.2937 10.681 34.73C10.681 35.1663 10.6518 35.5855 10.5935 36.006C10.5351 36.4265 10.4355 36.8275 10.2957 37.2091C10.156 37.5907 9.95181 37.9346 9.68446 38.2408C9.54713 38.3842 9.43533 38.4997 9.34662 38.5884C9.2579 38.6771 9.17162 38.7537 9.08777 38.8181C9.0027 38.8837 8.91034 38.9408 8.80948 38.9894C8.70861 39.038 8.58587 39.0952 8.44247 39.1608C8.22737 39.2386 8.07182 39.2981 7.97825 39.337C7.88346 39.3759 7.7911 39.4099 7.69995 39.4403C7.60881 39.4695 7.48485 39.5011 7.32809 39.5327C7.17132 39.5655 6.93313 39.6201 6.61352 39.6991C6.44338 39.738 6.29269 39.7757 6.15901 39.8122C6.02534 39.8486 5.89531 39.8729 5.7677 39.8851C5.6401 39.8984 5.50035 39.9082 5.34723 39.9142C5.1941 39.9203 5.01668 39.9179 4.81373 39.9045C4.3969 39.879 4.06149 39.8413 3.81115 39.7915C3.55959 39.7429 3.29467 39.653 3.01394 39.5229C2.73322 39.399 2.49503 39.2762 2.29938 39.1559C2.10372 39.0356 1.93602 38.9019 1.79626 38.7549C1.65651 38.6078 1.53498 38.4389 1.43412 38.2457C1.33325 38.0537 1.22996 37.8167 1.12545 37.5372C1.04767 37.3221 0.97354 37.0511 0.905486 36.7254C0.837431 36.3997 0.780314 36.0655 0.734135 35.7228C0.687955 35.3801 0.649067 35.0593 0.616255 34.7591C0.583443 34.459 0.560354 34.2244 0.548201 34.0555L0.00012207 24.8123L2.67003 24.6361L3.39432 34.9742C3.44657 35.7763 3.62886 36.3694 3.9424 36.7546C4.25593 37.1398 4.79915 37.3051 5.57569 37.2528C6.33158 37.214 6.91368 36.9648 7.32201 36.5042C7.72912 36.0449 7.90654 35.4142 7.8555 34.6121L7.01334 24.2934L9.99678 24.1172V24.1184Z" fill="white"/>
<path d="M21.7384 24.1965L21.6606 26.5043L15.509 26.5432L15.9101 31.4625L20.878 31.0615L21.0445 33.4871L16.1154 33.4482L16.4581 38.2011L22.1407 38.0152L22.2184 39.6193L13.1709 39.8149L12.8683 24.4785L21.7396 24.1953L21.7384 24.1965Z" fill="white"/>
<path d="M27.9458 24.2929L30.8503 31.4228L31.515 24.5566L34.4985 24.8106L33.1981 40L30.8503 39.5406L27.5059 32.5274L26.8703 39.4616L23.9464 39.1785L25.2261 24L27.9446 24.2929H27.9458Z" fill="white"/>
<path d="M39.4241 38.0592L38.7497 39.5856L35.8258 39.4191L42.0454 24.3184L44.3532 24.3572L47.9819 39.9088L44.832 39.7812L44.5087 38.363L39.4229 38.0604L39.4241 38.0592ZM42.8086 29.2073L40.3441 35.5351L44.1296 35.7794L42.8086 29.2073Z" fill="white"/>
</svg>
